# xmcd
#
# Track frame offsets:
#	150
#	16614
#	36447
#	59745
#	72090
#	84070
#	95952
#	109771
#	129350
#	142213
#	155073
#	171524
#	185897
#	196817
#
# Disc length: 2784 seconds
#
# Revision: 0
# Processed by: cddbd v1.5.2PL0 Copyright (c) Steve Scherf et al.
# Submitted via: EasyCDDAExtractor 16.0.6.1
#
DISCID=cd0ade0e
DTITLE=V.A  - Τα blues του party Cd1
DYEAR=2013
DGENRE=ballads
TTITLE0=Albert Morris - Feelings
TTITLE1=Diana Ross and Lionel Richie - Endless love
TTITLE2=Santa Esmeralda - You're my everything
TTITLE3=Brian Hyland - Sealed with a kiss
TTITLE4=The Platters - Only you
TTITLE5=Demis Roussos - From souvenirs to souvenirs
TTITLE6=Diana Ross and Marvin Gaye - You are everything
TTITLE7=Mort Shuman - Sorrow
TTITLE8=Dusty Springfield - You don't have to say you love me
TTITLE9=James Brown - It's a man's man's man's world
TTITLE10=Manfred Mann - I put a spell on you
TTITLE11=The Spencer Davis Group - When a man loves a woman
TTITLE12=Louis Armstrong - What a wonderful world
TTITLE13=The Platters - The great pretender
EXTD=
EXTT0=
EXTT1=
EXTT2=
EXTT3=
EXTT4=
EXTT5=
EXTT6=
EXTT7=
EXTT8=
EXTT9=
EXTT10=
EXTT11=
EXTT12=
EXTT13=
PLAYORDER=
